<svg xmlns="http://www.w3.org/2000/svg" xmlns:xlink="http://www.w3.org/1999/xlink" fill="none" version="1.1" width="2434" height="1645" viewBox="0 0 2434 1645"><defs><clipPath id="master_svg0_1_168"><rect x="0" y="0" width="2434" height="1645" rx="0"/></clipPath></defs><g clip-path="url(#master_svg0_1_168)"><rect x="0" y="0" width="2434" height="1645" rx="0" fill="#322238" fill-opacity="1"/><g><g><ellipse cx="1453.5679016113281" cy="1097.01953125" rx="432.6003723144531" ry="432.48828125" fill-opacity="0" stroke-opacity="1" stroke="#855698" fill="none" stroke-width="36"/></g><g><path d="M635.4843,1723.175Q788.441,1374.413,1061.995,1263.685L1048.488,1230.315Q761.355,1346.5395,602.5157,1708.716L635.4843,1723.175Z" fill-rule="evenodd" fill="#855698" fill-opacity="1"/></g><g><path d="M2418.4126669921875,249.909Q2449.4856669921874,183.9667,2496.3016669921876,140.1406L2471.6986669921876,113.8594Q2419.8546669921875,162.3918,2385.8476669921874,234.564Q2372.3806669921873,263.14300000000003,2359.2966669921875,300.33299999999997Q2351.5146669921874,322.453,2337.3866669921877,367.373Q2322.8406669921874,413.625,2314.7226669921874,436.599Q2301.2956669921873,474.593,2287.3036669921876,504.174Q2252.5616669921874,577.62,2199.2976669921873,629.54Q2039.1846669921874,785.612,1793.0502669921875,828.407L1799.2170669921875,863.875Q2056.3326669921876,819.17,2224.4266669921876,655.319Q2282.3336669921873,598.874,2319.8466669921872,519.568Q2334.6266669921874,488.322,2348.6656669921877,448.594Q2356.9936669921876,425.027,2371.7286669921878,378.173Q2385.6756669921874,333.829,2393.2566669921875,312.28Q2405.7296669921875,276.825,2418.4126669921875,249.909Z" fill-rule="evenodd" fill="#855698" fill-opacity="1"/></g></g></g></svg>