<svg xmlns="http://www.w3.org/2000/svg" xmlns:xlink="http://www.w3.org/1999/xlink" fill="none" version="1.1" width="290" height="153" viewBox="0 0 290 153"><g><g><ellipse cx="148" cy="76.5" rx="69.5" ry="69.5" fill-opacity="0" stroke-opacity="1" stroke="#DDB5ED" fill="none" stroke-width="14"/></g><g><path d="M277.218,85.34264941406249Q277.226,85.3475494140625,277.235,85.3524494140625Q277.719,85.6331494140625,278.235,85.8479494140625Q278.751,86.0627494140625,279.292,86.2080494140625Q279.832,86.3534494140625,280.386,86.4266494140625Q280.941,86.4999494140625,281.5,86.4999494140625Q281.709,86.4999494140625,281.917,86.4897494140625Q282.125,86.4795494140625,282.333,86.45904941406249Q282.541,86.4386494140625,282.747,86.4079494140625Q282.954,86.37734941406251,283.158,86.33664941406249Q283.363,86.2959494140625,283.565,86.2452494140625Q283.768,86.1945494140625,283.967,86.1339494140625Q284.167,86.07344941406251,284.364,86.0031494140625Q284.56,85.9328494140625,284.753,85.8529494140625Q284.946,85.7731494140625,285.134,85.68384941406251Q285.323,85.5946494140625,285.507,85.49634941406251Q285.691,85.3979494140625,285.87,85.2906494140625Q286.049,85.1834494140625,286.222,85.06744941406251Q286.396,84.9515494140625,286.563,84.82724941406249Q286.731,84.7029494140625,286.892,84.5705494140625Q287.054,84.43814941406251,287.208,84.2980494140625Q287.363,84.1579494140625,287.51,84.0103494140625Q287.658,83.8628494140625,287.798,83.7082494140625Q287.938,83.5536494140625,288.071,83.3923494140625Q288.203,83.2310494140625,288.327,83.0634494140625Q288.452,82.8958494140625,288.567,82.7223494140625Q288.683,82.5488494140625,288.791,82.3698494140625Q288.898,82.1908494140625,288.996,82.0068494140625Q289.095,81.8228494140625,289.184,81.6342494140625Q289.273,81.4455494140625,289.353,81.25274941406249Q289.433,81.0600494140625,289.503,80.8635494140625Q289.573,80.6670494140625,289.634,80.4674494140625Q289.695,80.26774941406251,289.745,80.0653494140625Q289.796,79.8629494140625,289.837,79.6582494140625Q289.877,79.45354941406251,289.908,79.2471494140625Q289.939,79.0407494140625,289.959,78.8331494140625Q289.98,78.6254494140625,289.99,78.4170494140625Q290,78.2086494140625,290,77.9999494140625Q290,77.7222494140625,289.982,77.4451494140625Q289.964,77.1679494140625,289.928,76.8925494140625Q289.891,76.6172494140625,289.837,76.3447494140625Q289.783,76.0723594140625,289.711,75.8040494140625Q289.64,75.5357394140625,289.551,75.2726894140625Q289.462,75.0096294140625,289.355,74.7529494140625Q289.249,74.4962794140625,289.127,74.2470794140625Q289.004,73.9978694140625,288.865,73.7572094140625Q288.727,73.51653941406249,288.573,73.2854394140625Q288.419,73.0543394140625,288.25,72.8337794140625Q288.081,72.6132294140625,287.898,72.4041694140625Q287.715,72.1951094140625,287.519,71.9984294140625Q287.323,71.8017494140625,287.115,71.6182894140625Q286.906,71.4348294140625,286.686,71.2653694140625Q286.466,71.09591941406251,286.235,70.9411894140625Q286.005,70.7864594140625,285.764,70.6471194140625Q285.753,70.6407594140625,285.742,70.6344094140625Q263.844,57.9386594140625,244.076,60.8447594140625Q235.995,62.0328494140625,226.782,65.9867024140625Q221.477,68.2636494140625,210.903,73.8570894140625Q194.083,82.7553494140625,183.988,86.2149494140625Q167.107,91.9999494140625,148.5,91.9999494140625Q130.707,92.0000494140625,114.413,86.0261494140625Q104.5957,82.4268494140625,87.9068,73.0459494140625Q76.5532,66.6639924140625,70.7565,64.0685594140625Q60.6868,59.5599094140625,51.6325,58.3149194140625Q29.6198,55.2880494140625,4.1001,70.7273694140625Q3.8666799999999997,70.8685894140625,3.6428000000000003,71.0244794140625Q3.41892,71.1803794140625,3.20549,71.3503094140625Q2.9920600000000004,71.5202394140625,2.7899700000000003,71.7035094140625Q2.58788,71.8867794140625,2.3979600000000003,72.0826294140625Q2.2080399999999996,72.2784794140625,2.0310699999999997,72.4860994140625Q1.8540900000000002,72.6937294140625,1.6908000000000003,72.9122794140625Q1.5275100000000004,73.1308194140625,1.3785600000000002,73.3593894140625Q1.2296199999999997,73.5879594140625,1.0956400000000004,73.8256094140625Q0.9616600000000002,74.0632594140625,0.8431899999999999,74.3090094140625Q0.7247300000000001,74.5547594140625,0.6222700000000003,74.8075994140625Q0.5198099999999997,75.0604394140625,0.4337700000000009,75.3193294140625Q0.3477300000000003,75.5782194140625,0.27847000000000044,75.8420994140625Q0.20921000000000056,76.1059794140625,0.15701999999999927,76.3737494140625Q0.10482000000000014,76.6415494140625,0.06991000000000014,76.9120494140625Q0.03499000000000052,77.1826494140625,0.01749000000000045,77.4549494140625Q0,77.7271494140625,0,77.9999494140625Q0,78.2086494140625,0.010239999999999583,78.4170494140625Q0.020479999999999166,78.6254494140625,0.04092999999999947,78.8331494140625Q0.06137999999999977,79.0407494140625,0.09200000000000053,79.2471494140625Q0.12261999999999951,79.45354941406251,0.1633300000000002,79.6582494140625Q0.2040299999999995,79.8629494140625,0.25473000000000035,80.0653494140625Q0.3054400000000008,80.26774941406251,0.3660099999999993,80.4674494140625Q0.4265799999999995,80.6670494140625,0.4968800000000009,80.8635494140625Q0.56717,81.0600494140625,0.64703,81.25274941406249Q0.7268800000000004,81.4455494140625,0.81609,81.6342494140625Q0.9053100000000001,81.8228494140625,1.0036699999999996,82.0068494140625Q1.10203,82.1908494140625,1.2093100000000003,82.3698494140625Q1.31658,82.5488494140625,1.4325099999999997,82.7223494140625Q1.5484400000000003,82.8958494140625,1.6727400000000001,83.0634494140625Q1.79704,83.2310494140625,1.9294099999999998,83.3923494140625Q2.0617900000000002,83.5536494140625,2.2019200000000003,83.7082494140625Q2.3420500000000004,83.8628494140625,2.4895899999999997,84.0103494140625Q2.6371399999999996,84.1579494140625,2.7917500000000004,84.2980494140625Q2.9463600000000003,84.43814941406251,3.10766,84.5705494140625Q3.26896,84.7029494140625,3.43656,84.82724941406249Q3.6041600000000003,84.9515494140625,3.7776500000000004,85.06744941406251Q3.95115,85.1834494140625,4.13013,85.2906494140625Q4.3091,85.3979494140625,4.49313,85.49634941406251Q4.67715,85.5946494140625,4.86578,85.68384941406251Q5.05441,85.7731494140625,5.24719,85.8529494140625Q5.439970000000001,85.9328494140625,5.63644,86.0031494140625Q5.8329,86.07344941406251,6.032579999999999,86.1339494140625Q6.23226,86.1945494140625,6.434670000000001,86.2452494140625Q6.63708,86.2959494140625,6.84173,86.33664941406249Q7.04639,86.37734941406251,7.25279,86.4079494140625Q7.4592,86.4386494140625,7.666854,86.45904941406249Q7.874513,86.4795494140625,8.082925,86.4897494140625Q8.291337,86.4999494140625,8.5,86.4999494140625Q9.078983000000001,86.4999494140625,9.65262,86.4214494140625Q10.22625,86.3429494140625,10.78394,86.1873494140625Q11.34163,86.03184941406249,11.87308,85.8020494140625Q12.40452,85.5723494140625,12.899899999999999,85.2726494140625Q12.90257,85.2709494140625,12.905249999999999,85.2693494140625Q33.2705,72.9500294140625,49.3168,75.15644941406251Q55.9605,76.0699894140625,63.8094,79.5842494140625Q68.89869999999999,81.8630494140625,79.5768,87.8652494140625Q97.4587,97.9168494140625,108.561,101.9871494140625Q127.688,108.9999494140625,148.5,108.9999494140625Q169.939,108.9999494140625,189.499,102.2967494140625Q200.854,98.4052494140625,218.853,88.8839494140625Q237.565,78.9846494140625,246.549,77.6639494140625Q260.449,75.6204394140625,277.218,85.34264941406249Z" fill-rule="evenodd" fill="#DDB5ED" fill-opacity="1"/></g></g></svg>